<?xml version="1.0" encoding="UTF-8" standalone="no" ?>
<!DOCTYPE svg PUBLIC "-//W3C//DTD SVG 1.1//EN" "http://www.w3.org/Graphics/SVG/1.1/DTD/svg11.dtd">
<svg xmlns="http://www.w3.org/2000/svg" xmlns:xlink="http://www.w3.org/1999/xlink" version="1.1" width="1080" height="1080" viewBox="0 0 1080 1080" xml:space="preserve">
<desc>Created with Fabric.js 5.2.4</desc>
<defs>
</defs>
<rect x="0" y="0" width="100%" height="100%" fill="transparent"></rect>
<g transform="matrix(1 0 0 1 540 540)" id="fcfc32da-508f-46fa-9890-3d358dad1fc2"  >
</g>
<g transform="matrix(1 0 0 1 540 540)" id="f299d3f5-08fc-4742-84ca-2f1d1ffa289f"  >
<rect style="stroke: none; stroke-width: 1; stroke-dasharray: none; stroke-linecap: butt; stroke-dashoffset: 0; stroke-linejoin: miter; stroke-miterlimit: 4; fill: rgb(255,255,255); fill-rule: nonzero; opacity: 1; visibility: hidden;" vector-effect="non-scaling-stroke"  x="-540" y="-540" rx="0" ry="0" width="1080" height="1080" />
</g>
<g transform="matrix(4.16 -4.16 4.16 4.16 583.03 475.48)"  >
<path style="stroke: none; stroke-width: 1; stroke-dasharray: none; stroke-linecap: butt; stroke-dashoffset: 0; stroke-linejoin: miter; stroke-miterlimit: 4; fill: rgb(111,111,111); fill-rule: nonzero; opacity: 1;" vector-effect="non-scaling-stroke"  transform=" translate(-60.9, -39.05)" d="M 51.7 36.2 L 70.1 36.2 L 70.1 41.900000000000006 L 51.7 41.900000000000006 z" stroke-linecap="round" />
</g>
<g transform="matrix(4.16 -4.16 4.16 4.16 689.42 369.39)"  >
<path style="stroke: rgb(35,35,35); stroke-width: 1; stroke-dasharray: none; stroke-linecap: butt; stroke-dashoffset: 0; stroke-linejoin: miter; stroke-miterlimit: 4; fill: rgb(35,35,35); fill-rule: nonzero; opacity: 1;" vector-effect="non-scaling-stroke"  transform=" translate(-78.95, -21.05)" d="M 73.1 18.2 L 84.8 18.2 L 84.8 23.9 L 73.1 23.9 z" stroke-linecap="round" />
</g>
<g transform="matrix(5.89 0 0 5.89 614.79 338.85)"  >
<path style="stroke: none; stroke-width: 1; stroke-dasharray: none; stroke-linecap: butt; stroke-dashoffset: 0; stroke-linejoin: miter; stroke-miterlimit: 4; fill: rgb(35,35,35); fill-rule: nonzero; opacity: 1;" vector-effect="non-scaling-stroke"  transform=" translate(-66.25, -15.85)" d="M 63.4 10 L 69.1 10 L 69.1 21.7 L 63.39999999999999 21.7 z" stroke-linecap="round" />
</g>
<g transform="matrix(4.16 -4.16 4.16 4.16 540.02 369.74)"  >
<path style="stroke: none; stroke-width: 1; stroke-dasharray: none; stroke-linecap: butt; stroke-dashoffset: 0; stroke-linejoin: miter; stroke-miterlimit: 4; fill: rgb(35,35,35); fill-rule: nonzero; opacity: 1;" vector-effect="non-scaling-stroke"  transform=" translate(-53.55, -21.05)" d="M 50.7 15.2 L 56.400000000000006 15.2 L 56.400000000000006 26.9 L 50.7 26.9 z" stroke-linecap="round" />
</g>
<g transform="matrix(4.16 -4.16 4.16 4.16 689.77 518.79)"  >
<path style="stroke: none; stroke-width: 1; stroke-dasharray: none; stroke-linecap: butt; stroke-dashoffset: 0; stroke-linejoin: miter; stroke-miterlimit: 4; fill: rgb(35,35,35); fill-rule: nonzero; opacity: 1;" vector-effect="non-scaling-stroke"  transform=" translate(-78.95, -46.45)" d="M 76.1 40.6 L 81.8 40.6 L 81.8 52.3 L 76.1 52.3 z" stroke-linecap="round" />
</g>
<g transform="matrix(5.89 0 0 5.89 720.19 444.23)"  >
<path style="stroke: none; stroke-width: 1; stroke-dasharray: none; stroke-linecap: butt; stroke-dashoffset: 0; stroke-linejoin: miter; stroke-miterlimit: 4; fill: rgb(35,35,35); fill-rule: nonzero; opacity: 1;" vector-effect="non-scaling-stroke"  transform=" translate(-84.15, -33.75)" d="M 78.3 30.9 L 90 30.9 L 90 36.6 L 78.3 36.6 z" stroke-linecap="round" />
</g>
<g transform="matrix(5.89 0 0 5.89 379.39 621.48)"  >
<path style="stroke: none; stroke-width: 1; stroke-dasharray: none; stroke-linecap: butt; stroke-dashoffset: 0; stroke-linejoin: miter; stroke-miterlimit: 4; fill: rgb(217,76,98); fill-rule: nonzero; opacity: 1;" vector-effect="non-scaling-stroke"  transform=" translate(-26.26, -63.85)" d="M 28.8 49.5 C 32.7 45.6 37.5 42.9 42.5 41.5 C 33.9 38.7 24.1 40.8 17.3 47.6 C 7.600000000000001 57.3 7.600000000000001 73 17.3 82.7 C 19.2 84.60000000000001 21.4 86.2 23.8 87.4 C 16.9 75.4 18.5 59.800000000000004 28.8 49.50000000000001 z" stroke-linecap="round" />
</g>
<g transform="matrix(5.89 0 0 5.89 466.14 620.72)"  >
<path style="stroke: none; stroke-width: 1; stroke-dasharray: none; stroke-linecap: butt; stroke-dashoffset: 0; stroke-linejoin: miter; stroke-miterlimit: 4; fill: rgb(217,76,98); fill-rule: nonzero; opacity: 1;" vector-effect="non-scaling-stroke"  transform=" translate(-41, -63.72)" d="M 62.5 46.9 L 53 37.4 L 47 43.5 C 45.5 42.7 44 42 42.4 41.5 C 37.4 42.9 32.7 45.6 28.7 49.5 C 18.4 59.8 16.799999999999997 75.3 23.6 87.4 C 32.900000000000006 92.10000000000001 44.5 90.5 52.3 82.7 C 60.4 74.60000000000001 61.699999999999996 62.400000000000006 56.4 52.900000000000006 L 62.5 46.900000000000006 z" stroke-linecap="round" />
</g>
<g transform="matrix(0 0 0 0 0 0)"  >
<g style=""   >
</g>
</g>
<g transform="matrix(NaN NaN NaN NaN 0 0)"  >
<g style=""   >
</g>
</g>
<g transform="matrix(NaN NaN NaN NaN 0 0)"  >
<g style=""   >
</g>
</g>
</svg>